{
   "accessors" : 
   [
      {
         "bufferView" : 0,
         "byteOffset" : 0,
         "componentType" : 5126,
         "count" : 33511,
         "max" : [ 1.4146610498428345, 0.0, 0.048660013824701309 ],
         "min" : [ 0.0, -1.5026869773864746, -0.048660013824701309 ],
         "type" : "VEC3"
      },
      {
         "bufferView" : 1,
         "byteOffset" : 0,
         "componentType" : 5126,
         "count" : 33511,
         "normalized" : false,
         "type" : "VEC2"
      },
      {
         "bufferView" : 2,
         "byteOffset" : 0,
         "componentType" : 5125,
         "count" : 192306,
         "type" : "SCALAR"
      }
   ],
   "asset" : 
   {
      "generator" : "VTK",
      "version" : "2.0"
   },
   "bufferViews" : 
   [
      {
         "buffer" : 0,
         "byteLength" : 402132,
         "byteOffset" : 0
      },
      {
         "buffer" : 1,
         "byteLength" : 268088,
         "byteOffset" : 0
      },
      {
         "buffer" : 2,
         "byteLength" : 769224,
         "byteOffset" : 0
      },
      {
         "buffer" : 3,
         "byteLength" : 273,
         "byteOffset" : 0
      }
   ],
   "buffers" : 
   [
      {
         "byteLength" : 402132,
         "uri" : "buffer1094121.bin"
      },
      {
         "byteLength" : 268088,
         "uri" : "buffer15226114.bin"
      },
      {
         "byteLength" : 769224,
         "uri" : "buffer15230307.bin"
      },
      {
         "byteLength" : 273,
         "uri" : "buffer15230761.bin"
      }
   ],
   "cameras" : 
   [
      {
         "perspective" : 
         {
            "aspectRatio" : 1.5205298013245032,
            "yfov" : 0.52359877559829882,
            "zfar" : 6.1169718963872359,
            "znear" : 2.3104980280121197
         },
         "type" : "perspective"
      }
   ],
   "images" : 
   [
      {
         "bufferView" : 3,
         "mimeType" : "image/png"
      }
   ],
   "materials" : 
   [
      {
         "pbrMetallicRoughness" : 
         {
            "baseColorFactor" : [ 1.0, 1.0, 1.0, 1.0 ],
            "baseColorTexture" : 
            {
               "index" : 0,
               "texCoord" : 0
            },
            "metallicFactor" : 0.0,
            "roughnessFactor" : 1.0
         }
      }
   ],
   "meshes" : 
   [
      {
         "name" : "mesh0",
         "primitives" : 
         [
            {
               "attributes" : 
               {
                  "POSITION" : 0,
                  "TEXCOORD_0" : 1
               },
               "indices" : 2,
               "material" : 0,
               "mode" : 4
            }
         ]
      }
   ],
   "nodes" : 
   [
      {
         "mesh" : 0,
         "name" : "mesh0"
      },
      {
         "camera" : 0,
         "matrix" : 
         [
            0.74422504434012104,
            -0.56788369124193461,
            0.35162081365923137,
            0.0,
            -0.59854152988549303,
            -0.33337620827320397,
            0.72842867925399168,
            0.0,
            -0.29644075357359073,
            -0.75257452586359597,
            -0.58800889673703516,
            0.0,
            -0.9761233724647137,
            0.15120142604915832,
            -3.6928275266947308,
            1.0
         ],
         "name" : "Camera Node"
      },
      {
         "children" : [ 0, 1 ],
         "name" : "Renderer Node"
      }
   ],
   "samplers" : 
   [
      {
         "magFilter" : 9728,
         "minFilter" : 9728,
         "wrapS" : 33071,
         "wrapT" : 33071
      }
   ],
   "scene" : 0,
   "scenes" : 
   [
      {
         "name" : "Layer 0",
         "nodes" : [ 2 ]
      }
   ],
   "textures" : 
   [
      {
         "sampler" : 0,
         "source" : 0
      }
   ]
}